<?xml version="1.0" standalone="no"?><!DOCTYPE svg PUBLIC "-//W3C//DTD SVG 1.1//EN" "http://www.w3.org/Graphics/SVG/1.1/DTD/svg11.dtd"><svg t="1581407055825" class="icon" viewBox="0 0 1024 1024" version="1.1" xmlns="http://www.w3.org/2000/svg" p-id="2858" xmlns:xlink="http://www.w3.org/1999/xlink" width="200" height="200"><defs><style type="text/css"></style></defs><path d="M381.696 169.074l353.14 192.591 147.686-73.018L512 104.213l-130.304 64.861z m-78.62 39.135l-161.598 80.438L512 471.84l143.964-71.178-352.888-192.453zM924 348.46L548 534.36v367.39l376-188V348.459z m72-57.228V736a36 36 0 0 1-19.9 32.2l-448 224a36 36 0 0 1-32.2 0l-448-224A36 36 0 0 1 28 736V291.23c-0.01-0.504-0.01-1.01 0-1.515V287a36 36 0 0 1 19.958-32.228l448-223a36 36 0 0 1 32.084 0l448 223A36 36 0 0 1 996 287v2.715c0.01 0.506 0.01 1.011 0 1.516zM476 901.75V534.36L100 348.459V713.75l376 188z" p-id="2859"></path></svg>