<?xml version="1.0" standalone="no"?><!DOCTYPE svg PUBLIC "-//W3C//DTD SVG 1.1//EN" "http://www.w3.org/Graphics/SVG/1.1/DTD/svg11.dtd"><svg t="1581407062064" class="icon" viewBox="0 0 1024 1024" version="1.1" xmlns="http://www.w3.org/2000/svg" p-id="2990" xmlns:xlink="http://www.w3.org/1999/xlink" width="200" height="200"><defs><style type="text/css"></style></defs><path d="M28 287a36 36 0 0 1 19.958-32.228l448-223a36 36 0 0 1 32.084 0l448 223A36 36 0 0 1 996 287v449a36 36 0 0 1-19.9 32.2l-448 224a36 36 0 0 1-32.2 0l-448-224A36 36 0 0 1 28 736V287z m72 22.294V713.75l412 206 412-206V309.294l-412-205.08-412 205.08z m299.75-86.097L512.5 167l320.61 159.797-127.791 63.264-305.57-166.864z m-68.03 33.907l305.35 166.744-124.57 61.67-320.61-158.721 139.83-69.693zM869 378.618v316.496L543.65 858V539.687L869 378.618zM481.35 858L156 695.114V378.618l325.35 161.069V858z" p-id="2991"></path></svg>